<svg xmlns="http://www.w3.org/2000/svg" xmlns:xlink="http://www.w3.org/1999/xlink" width="500" zoomAndPan="magnify" viewBox="0 0 375 374.999991" height="500" preserveAspectRatio="xMidYMid meet" version="1.0"><defs><g/></defs><g fill="#0dbfce" fill-opacity="1"><g transform="translate(22.893965, 256.461346)"><g><path d="M 194.921875 -3.722656 L 100.5625 -246.445312 C 99.632812 -248.925781 95.289062 -248.925781 94.355469 -246.445312 L 0.308594 -3.722656 C -0.621094 -1.863281 0.621094 0 3.414062 0 L 45.9375 0 C 47.179688 0 48.730469 -0.621094 49.039062 -1.863281 L 97.460938 -140.292969 L 146.5 -1.863281 C 146.8125 -0.621094 148.363281 0 149.292969 0 L 192.125 0 C 194.300781 0 195.851562 -1.863281 194.921875 -3.722656 Z M 194.921875 -3.722656 "/></g></g></g><g fill="#0dbfce" fill-opacity="1"><g transform="translate(222.36411, 365.687251)"><g><path d="M 145.257812 -45.9375 L 17.691406 -45.9375 L 0.621094 -4.035156 C -0.308594 -1.550781 0.929688 0 4.035156 0 L 144.949219 0 C 147.121094 0 148.671875 -1.550781 148.671875 -2.792969 L 148.671875 -43.144531 C 148.671875 -44.695312 147.433594 -45.9375 145.257812 -45.9375 Z M 3.414062 -202.058594 L 80.078125 -202.058594 L 36.625 -93.425781 L 87.527344 -93.425781 L 148.050781 -244.269531 C 148.671875 -246.753906 147.433594 -248.304688 144.636719 -248.304688 L 3.414062 -248.304688 C 1.550781 -248.304688 0 -246.753906 0 -245.511719 L 0 -205.164062 C 0 -203.609375 1.550781 -202.058594 3.414062 -202.058594 Z M 3.414062 -202.058594 "/></g></g></g></svg>